:SAMPLES-PER-SECOND 30
:FRAME-RANGE 1-4244
:FULLY-SPECIFIED
:DEGREES
266
root  14.1858 37.2158 -37.7827 -10.3094 73.3062 -12.7785
RightUpLeg  -4.14971 -8.2847 -20.8429
RightLeg  20.107 -9.40964 -4.14845
RightFoot  -2.51016 -1.24725 15.8354
RightToes  -3.31784e-009 0 -3.6325e-017
Spine  11.9415 2.04247 -1.93899
Spine1  -4.88707 -0.48275 16.0616
HEad  -16.8827 50.5229 -12.634
LeftShoulder1  0.502043 -2.06085 -0.656138
LeftArm  -44.0238 -29.8967 13.1226
LeftForeArm  -11.2975 7.39698 -10.6349
LeftHand  -0.169962 6.19904 -16.5393
RightShoulder  6.01172 11.5086 34.118
RightArm  -29.3186 10.7148 -5.80694
RightForeArm  23.4516 69.8561 30.2353
RightHand  -0.102523 0.766532 -2.02092
LeftUpLeg  -25.8871 21.5436 14.8169
LeftLeg  37.8123 -6.4836 -5.01156
LeftFoot  -9.45428 0.266152 -12.6911
LeftToes  1.0277e-010 -6.71454e-011 3.04227e-011
267
root  14.8785 37.6631 -38.5824 -8.8631 70.3826 -12.1729
RightUpLeg  -5.31125 -12.7424 -19.2301
RightLeg  18.1603 -7.7981 -3.32543
RightFoot  -3.10682 -1.19832 16.2498
RightToes  -3.31784e-009 0 -3.6325e-017
Spine  11.8204 2.13177 -1.34513
Spine1  -4.45984 -0.212804 14.9544
HEad  -18.8367 51.5962 -14.2767
LeftShoulder1  0.497655 -1.63576 -1.40585
LeftArm  -41.5426 -29.0438 12.6841
LeftForeArm  -8.61726 7.62068 -11.7193
LeftHand  -0.0661668 5.48631 -18.7371
RightShoulder  5.87394 9.7639 38.2656
RightArm  -23.0251 7.66389 -3.91651
RightForeArm  30.3502 74.0494 40.994
RightHand  -0.0468041 0.52088 -0.979957
LeftUpLeg  -24.322 22.9059 13.8747
LeftLeg  36.4355 -5.05923 -3.64109
LeftFoot  -9.92856 0.205091 -11.7913
LeftToes  1.0277e-010 -6.71454e-011 3.04227e-011
268
root  15.4797 38.1817 -39.2778 -7.49638 68.1003 -11.5301
RightUpLeg  -6.17906 -17.4904 -16.8233
RightLeg  16.6019 -8.83191 -2.64202
RightFoot  -5.13358 -0.948453 16.7311
RightToes  -3.31784e-009 0 -3.6325e-017
Spine  11.7614 1.96935 -1.1457
Spine1  -4.0432 -0.316143 14.3415
HEad  -20.2999 52.059 -15.979
LeftShoulder1  0.494088 -1.10571 -2.57926
LeftArm  -39.1312 -27.9342 12.0747
LeftForeArm  -5.56505 3.97025 -13.0061
LeftHand  0.295764 3.59885 -21.3182
RightShoulder  5.34425 7.84793 40.9527
RightArm  -18.3183 5.70774 -2.98963
RightForeArm  37.3508 75.446 45.5553
RightHand  0.228432 1.18541 3.93054
LeftUpLeg  -22.4223 23.3307 12.7615
LeftLeg  33.7441 -3.41169 -2.09811
LeftFoot  -9.6988 0.221558 -11.3843
LeftToes  1.0277e-010 -6.71454e-011 3.04227e-011
269
root  16.0289 38.6666 -39.9133 -5.95996 66.5193 -10.5899
RightUpLeg  -6.52025 -22.0017 -14.5533
RightLeg  15.3427 -12.267 -1.47175
RightFoot  -5.90274 -0.827714 16.4698
RightToes  -3.31784e-009 0 -3.6325e-017
Spine  11.4539 1.78959 -1.46601
Spine1  -3.63386 -0.602 14.4563
HEad  -20.3522 52.1438 -16.5211
LeftShoulder1  0.4825 -0.673817 -3.5179
LeftArm  -39.0759 -28.2258 10.8557
LeftForeArm  -7.12214 0.149446 -13.3314
LeftHand  0.480965 2.86674 -23.2889
RightShoulder  4.72516 6.68575 40.2936
RightArm  -17.1664 4.4709 -3.60354
RightForeArm  43.0922 75.9879 46.6443
RightHand  0.342005 2.49301 4.83907
LeftUpLeg  -20.7075 23.4663 11.2611
LeftLeg  30.7621 -1.74762 -0.777756
LeftFoot  -8.99663 0.275596 -10.8151
LeftToes  1.0277e-010 -6.71454e-011 3.04227e-011
270
root  16.5285 39.027 -40.5255 -4.22444 65.0134 -9.32912
RightUpLeg  -7.28389 -25.5992 -11.8795
RightLeg  15.4092 -14.8374 -0.753578
RightFoot  -7.01993 -0.681145 16.6698
RightToes  -3.31784e-009 0 -3.6325e-017
Spine  10.9501 1.59456 -1.45881
Spine1  -3.16713 -0.805736 14.113
HEad  -19.6272 52.2166 -16.303
LeftShoulder1  0.517749 -0.908956 -3.72615
LeftArm  -38.8834 -29.0242 9.86187
LeftForeArm  -7.89905 -3.12814 -13.5949
LeftHand  0.611318 2.5052 -25.4096
RightShoulder  4.22028 6.27928 37.1949
RightArm  -21.5796 5.36798 -5.14691
RightForeArm  39.9249 75.5434 45.1945
RightHand  0.304222 2.08387 4.55446
LeftUpLeg  -19.9683 23.2021 9.76
LeftLeg  29.5167 -0.0585916 0.307503
LeftFoot  -7.97273 0.382525 -11.3596
LeftToes  1.0277e-010 -6.71454e-011 3.04227e-011
271
root  16.9442 39.2131 -41.0856 -2.576 63.1248 -7.96504
RightUpLeg  -9.41345 -29.9094 -7.87879
RightLeg  17.8358 -11.4463 -1.24387
RightFoot  -8.80111 -0.420815 16.1652
RightToes  -3.31784e-009 0 -3.6325e-017
Spine  11.0653 1.39688 -1.2919
Spine1  -3.38641 -0.908526 13.6681
HEad  -18.9136 52.6548 -15.8856
LeftShoulder1  0.526501 -1.1845 -3.15843
LeftArm  -35.0015 -29.8356 9.58167
LeftForeArm  -13.3 -6.37678 -14.0594
LeftHand  0.901408 1.65214 -28.1844
RightShoulder  4.09775 7.04878 32.9443
RightArm  -30.4078 7.97579 -6.7843
RightForeArm  28.5136 73.6845 40.0195
RightHand  0.333046 1.60841 5.38846
LeftUpLeg  -20.9325 24.289 8.62148
LeftLeg  31.7688 0.154953 0.452154
LeftFoot  -6.4586 0.613865 -13.4433
LeftToes  1.0277e-010 -6.71454e-011 3.04227e-011
272
root  17.3138 39.1726 -41.6159 -1.1505 61.3596 -6.79445
RightUpLeg  -12.2496 -31.6375 -3.44116
RightLeg  21.4826 -4.73024 -1.1863
RightFoot  -10.4012 -0.149077 9.5169
RightToes  -3.31784e-009 0 -3.6325e-017
Spine  11.4272 1.08656 -0.588889
Spine1  -3.97034 -1.05694 13.1614
HEad  -18.7265 52.955 -15.6989
LeftShoulder1  0.483048 -1.30695 -1.81138
LeftArm  -30.7558 -30.7531 10.2368
LeftForeArm  -19.793 -6.98625 -14.9813
LeftHand  0.991012 1.73468 -31.5238
RightShoulder  4.23216 8.85304 28.2786
RightArm  -41.3217 10.6318 -9.01161
RightForeArm  20.8254 71.4452 34.5343
RightHand  0.382046 1.73762 6.07595
LeftUpLeg  -24.6381 25.4337 7.75415
LeftLeg  38.437 0.00950004 0.377507
LeftFoot  -3.14454 1.252 -17.1033
LeftToes  1.0277e-010 -6.71454e-011 3.04227e-011
273
root  17.6853 38.9822 -42.123 0.420959 60.6395 -5.16089
RightUpLeg  -13.1067 -21.9075 -2.99192
RightLeg  23.87 -9.97952 -4.0356
RightFoot  -13.3272 0.0314035 7.02722
RightToes  -3.31784e-009 0 -3.6325e-017
Spine  12.1387 0.816804 0.350677
Spine1  -5.12934 -1.11734 12.6528
HEad  -18.4213 51.5512 -15.0066
LeftShoulder1  0.45282 -1.59484 -0.494802
LeftArm  -25.5268 -31.5641 10.7982
LeftForeArm  -26.9976 -10.3934 -14.5614
LeftHand  0.822458 2.38493 -32.2102
RightShoulder  3.96092 10.1981 22.6795
RightArm  -51.4709 12.3847 -11.3314
RightForeArm  16.9172 69.9767 31.6687
RightHand  0.463289 1.82238 7.30192
LeftUpLeg  -29.4104 24.5145 7.03919
LeftLeg  45.8305 -1.09338 -0.801347
LeftFoot  3.76008 2.38373 -18.0286
LeftToes  1.0277e-010 -6.71454e-011 3.04227e-011
274
root  18.1277 38.5454 -42.7301 1.68518 59.6065 -3.47974
RightUpLeg  -15.4664 -15.257 -4.93407
RightLeg  29.1001 -12.8974 -7.89936
RightFoot  -13.2727 0.103048 11.4412
RightToes  -3.31784e-009 0 -3.6325e-017
Spine  13.5592 1.11102 1.94412
Spine1  -7.39739 -0.312608 11.2487
HEad  -17.3137 48.518 -14.041
LeftShoulder1  0.414027 -1.99387 1.04147
LeftArm  -12.3221 -34.1364 9.98214
LeftForeArm  -41.1817 -15.441 -13.3081
LeftHand  0.481248 3.63722 -34.0148
RightShoulder  3.20677 10.5214 16.1628
RightArm  -58.8699 13.5031 -13.0065
RightForeArm  14.2628 68.9355 29.9411
RightHand  0.637231 2.33804 9.37052
LeftUpLeg  -30.8219 20.598 7.63683
LeftLeg  46.392 -1.14469 -0.881774
LeftFoot  2.81178 1.55289 -12.607
LeftToes  1.0277e-010 -6.71454e-011 3.04227e-011
275
root  18.6692 38.3753 -43.2539 2.66685 57.6354 -1.91243
RightUpLeg  -15.9994 -12.8081 -7.15819
RightLeg  30.7194 -12.6796 -8.25714
RightFoot  -13.1888 0.102746 11.9052
RightToes  -3.31784e-009 0 -3.6325e-017
Spine  14.1441 1.82577 2.03758
Spine1  -8.02474 0.632214 10.3021
HEad  -15.5809 45.4786 -12.9842
LeftShoulder1  0.328754 -2.02147 2.84534
LeftArm  -4.22134 -37.1509 7.44256
LeftForeArm  -47.1126 -17.8871 -12.1259
LeftHand  0.163996 4.63637 -33.2058
RightShoulder  2.63325 11.6409 10.104
RightArm  -63.2208 14.9509 -14.3903
RightForeArm  12.5432 67.3514 27.3628
RightHand  0.774324 2.66006 10.9308
LeftUpLeg  -28.0288 15.4713 9.61556
LeftLeg  38.3062 0.0869045 0.439966
LeftFoot  -3.47273 0.552334 -7.72135
LeftToes  1.0277e-010 -6.71454e-011 3.04227e-011
276
root  19.381 38.1977 -43.7417 2.55066 55.185 -1.17108
RightUpLeg  -15.7792 -12.2022 -9.1539
RightLeg  31.5187 -10.8402 -7.33587
RightFoot  -13.5399 0.118791 10.9639
RightToes  -3.31784e-009 0 -3.6325e-017
Spine  13.8492 2.43664 2.26122
Spine1  -7.44206 1.33261 10.0422
HEad  -14.0222 42.763 -11.8543
LeftShoulder1  0.254439 -2.46033 4.76991
LeftArm  3.41278 -39.0858 4.16409
LeftForeArm  -53.7334 -20.0903 -10.7481
LeftHand  -0.166273 5.73419 -32.0924
RightShoulder  2.33734 14.1243 5.4557
RightArm  -63.6431 15.7742 -15.6298
RightForeArm  9.97704 65.7668 25.3165
RightHand  0.885809 2.77804 12.3316
LeftUpLeg  -21.9118 7.62856 12.7741
LeftLeg  26.9057 -2.34841 -0.962822
LeftFoot  -7.38382 0.498353 -13.1019
LeftToes  1.0277e-010 -6.71454e-011 3.04227e-011
277
root  20.1216 37.7914 -44.3445 2.33112 51.4633 -1.19516
RightUpLeg  -17.3574 -11.0367 -10.8784
RightLeg  33.6022 -8.05269 -5.97299
RightFoot  -14.2228 0.200772 11.7957
RightToes  -3.31784e-009 0 -3.6325e-017
Spine  14.425 2.6981 3.55378
Spine1  -8.04383 2.0861 8.10063
HEad  -13.6991 41.591 -11.3565
LeftShoulder1  0.19342 -2.52068 5.97825
LeftArm  5.16677 -39.32 2.10942
LeftForeArm  -56.6239 -21.4207 -9.62698
LeftHand  -0.258612 6.07725 -30.9359
RightShoulder  2.01232 16.3095 1.93063
RightArm  -61.3718 18.0921 -14.8861
RightForeArm  8.07158 65.3487 24.9876
RightHand  1.03822 2.98225 14.0999
LeftUpLeg  -22.4581 10.5169 12.2483
LeftLeg  32.0989 -3.19244 -1.81037
LeftFoot  -12.0379 -0.0233729 -15.5699
LeftToes  1.0277e-010 -6.71454e-011 3.04227e-011
